<?xml version="1.0" encoding="utf-8"?>
<!-- Generator: Adobe Illustrator 22.0.1, SVG Export Plug-In . SVG Version: 6.00 Build 0)  -->
<svg version="1.1" id="Слой_1" xmlns="http://www.w3.org/2000/svg" xmlns:xlink="http://www.w3.org/1999/xlink" x="0px" y="0px"
	 viewBox="0 0 309 249.7" style="enable-background:new 0 0 309 249.7;" xml:space="preserve">
<style type="text/css">
	.st0{fill:#E9EBF3;}
	.st1{enable-background:new    ;}
	.st2{fill:#D1D1D1;}
	.st3{font-family:'CircularStd-Bold';}
	.st4{font-size:12px;}
	.st5{fill:url(#Path-2-Copy_1_);}
	.st6{fill:url(#Path-6-Copy_1_);}
	.st7{display:none;filter:url(#filter-4);}
	.st8{display:inline;}
	.st9{fill:none;stroke:#DE2349;stroke-width:2;}
	.st10{display:none;filter:url(#filter-6);}
	.st11{fill:none;stroke:#8BCD53;stroke-width:2;}
</style>
<filter  filterUnits="objectBoundingBox" height="104.3%" id="filter-6" width="104.2%" x="-2.1%" y="-1.4%">
	<feMorphology  in="SourceAlpha" operator="dilate" radius="1" result="shadowSpreadOuter1"></feMorphology>
	<feOffset  dx="0" dy="1" in="shadowSpreadOuter1" result="shadowOffsetOuter1"></feOffset>
	<feMorphology  in="SourceAlpha" operator="erode" radius="1" result="shadowInner"></feMorphology>
	<feOffset  dx="0" dy="1" in="shadowInner" result="shadowInner"></feOffset>
	<feComposite  in="shadowOffsetOuter1" in2="shadowInner" operator="out" result="shadowOffsetOuter1"></feComposite>
	<feGaussianBlur  in="shadowOffsetOuter1" result="shadowBlurOuter1" stdDeviation="0.5"></feGaussianBlur>
	
		<feColorMatrix  in="shadowBlurOuter1" type="matrix" values="0 0 0 0 0.407843137   0 0 0 0 0.674509804   0 0 0 0 0.180392157  0 0 0 0.25 0">
		</feColorMatrix>
</filter>
<filter  filterUnits="objectBoundingBox" height="104.4%" id="filter-4" width="104.1%" x="-2.1%" y="-1.5%">
	<feMorphology  in="SourceAlpha" operator="dilate" radius="1" result="shadowSpreadOuter1"></feMorphology>
	<feOffset  dx="0" dy="1" in="shadowSpreadOuter1" result="shadowOffsetOuter1"></feOffset>
	<feMorphology  in="SourceAlpha" operator="erode" radius="1" result="shadowInner"></feMorphology>
	<feOffset  dx="0" dy="1" in="shadowInner" result="shadowInner"></feOffset>
	<feComposite  in="shadowOffsetOuter1" in2="shadowInner" operator="out" result="shadowOffsetOuter1"></feComposite>
	<feGaussianBlur  in="shadowOffsetOuter1" result="shadowBlurOuter1" stdDeviation="0.5"></feGaussianBlur>
	
		<feColorMatrix  in="shadowBlurOuter1" type="matrix" values="0 0 0 0 0.870588235   0 0 0 0 0.137254902   0 0 0 0 0.28627451  0 0 0 0.25 0">
		</feColorMatrix>
</filter>
<title>Group</title>
<desc>Created with Sketch.</desc>
<g id="Page-1">
	<g id="fluence_block2_2" transform="translate(-937.000000, -324.000000)">
		<g id="Group-17" transform="translate(165.000000, 218.000000)">
			<g id="Group-16" transform="translate(0.000000, 76.000000)">
				<g id="Group-10-Copy" transform="translate(760.000000, 0.000000)">
					<g id="Group-2" transform="translate(10.000000, 30.000000)">
						<g id="Group-4">
							<g id="Group">
								<polygon id="Rectangle-3-Copy-2" class="st0" points="20,0 21,0 21,228 20,228 								"/>
								<g class="st1">
									<text transform="matrix(1 0 0 1 20 248)" class="st2 st3 st4">1 USD</text>
								</g>
								<g class="st1">
									<text transform="matrix(1 0 0 1 82 248)" class="st2 st3 st4">2 USD</text>
								</g>
								<g class="st1">
									<text transform="matrix(1 0 0 1 147 248)" class="st2 st3 st4">3 USD</text>
								</g>
								<g class="st1">
									<text transform="matrix(1 0 0 1 211 248)" class="st2 st3 st4">4 USD</text>
								</g>
								<g class="st1">
									<text transform="matrix(1 0 0 1 276 248)" class="st2 st3 st4">5 USD</text>
								</g>
								<g class="st1">
									<text transform="matrix(6.123234e-17 -1 1 6.123234e-17 12 228)" class="st2 st3 st4">0</text>
								</g>
								<g class="st1">
									<text transform="matrix(6.123234e-17 -1 1 6.123234e-17 12 184)" class="st2 st3 st4">50</text>
								</g>
								<g class="st1">
									<text transform="matrix(6.123234e-17 -1 1 6.123234e-17 12 133)" class="st2 st3 st4">100</text>
								</g>
								<g class="st1">
									<text transform="matrix(6.123234e-17 -1 1 6.123234e-17 12 77)" class="st2 st3 st4">150</text>
								</g>
								<g class="st1">
									<text transform="matrix(6.123234e-17 -1 1 6.123234e-17 12 22)" class="st2 st3 st4">200</text>
								</g>
								
									<linearGradient id="Path-2-Copy_1_" gradientUnits="userSpaceOnUse" x1="-521.8333" y1="506.156" x2="-521.8333" y2="505.156" gradientTransform="matrix(144 0 0 -141 75237 71454)">
									<stop  offset="0" style="stop-color:#8BCD53;stop-opacity:0.25"/>
									<stop  offset="1" style="stop-color:#8BCD53;stop-opacity:5.000000e-02"/>
								</linearGradient>
								<polygon id="Path-2-Copy" class="st5" points="21,227 21,86 29,86 29,91.7 32,91.7 32,95.5 41,95.5 41,99.2 48,99.2 
									48,108.7 52,108.7 52,110.6 57,110.6 57,116.3 62,116.3 62,123.8 65,123.8 65,129.5 76,129.5 76,135.2 84,135.2 84,139 
									92,139 92,144.6 102,144.6 102,150.3 109,150.3 109,154.1 113,154.1 113,161.7 117,161.7 117,173 124,173 124,178.7 
									133,178.7 133,188.2 137,188.2 137,195.7 143,195.7 143,201.4 149,201.4 149,207.1 152,207.1 152,210.9 159,210.9 
									159,218.4 162,218.4 162,220.3 165,220.3 165,227 163,227 								"/>
								
									<linearGradient id="Path-6-Copy_1_" gradientUnits="userSpaceOnUse" x1="-521.8586" y1="506.0882" x2="-521.8586" y2="505.0882" gradientTransform="matrix(145 0 0 -136 75907 68919)">
									<stop  offset="0" style="stop-color:#DE2349;stop-opacity:0.25"/>
									<stop  offset="1" style="stop-color:#DE2349;stop-opacity:5.000000e-02"/>
								</linearGradient>
								<polygon id="Path-6-Copy" class="st6" points="170,227 165,227 165,225 168,225 168,220 172,220 172,211 179,211 179,205 
									189,205 189,199 202,199 202,190 209,190 209,185 220,185 220,178 224,178 224,173 233,173 233,164 247,164 247,158 
									257,158 257,151 262,151 262,137 267,137 267,129 274,129 274,117 281,117 281,110 287,110 287,105 295,105 295,97 301,97 
									301,94 306,94 306,91 310,91 310,227 								"/>
								<g id="Path-6">
									<g class="st7">
										<polyline id="path-3_2_" class="st8" points="165,226 169,226 169,221 173,221 173,212 180,212 180,206 190,206 190,200 
											203,200 203,191 210,191 210,186 221,186 221,179 225,179 225,174 234,174 234,165 248,165 248,159 258,159 258,152 
											263,152 263,138 268,138 268,130 275,130 275,118 282,118 282,111 288,111 288,106 296,106 296,98 301,98 301,94 306,94 
											306,91 310,91 										"/>
									</g>
									<g>
										<polyline id="path-3_1_" class="st9" points="165,226 169,226 169,221 173,221 173,212 180,212 180,206 190,206 190,200 
											203,200 203,191 210,191 210,186 221,186 221,179 225,179 225,174 234,174 234,165 248,165 248,159 258,159 258,152 
											263,152 263,138 268,138 268,130 275,130 275,118 282,118 282,111 288,111 288,106 296,106 296,98 301,98 301,94 306,94 
											306,91 310,91 										"/>
									</g>
								</g>
								<g id="Path-2">
									<g class="st10">
										<polyline id="path-5_2_" class="st8" points="21,87 28,87 28,92.7 31,92.7 31,96.5 40,96.5 40,100.2 47,100.2 47,109.7 
											51,109.7 51,111.6 56,111.6 56,117.3 61,117.3 61,124.8 64,124.8 64,130.5 75,130.5 75,136.2 83,136.2 83,140 91,140 
											91,145.6 101,145.6 101,151.3 108,151.3 108,155.1 112,155.1 112,162.7 116,162.7 116,174 123,174 123,179.7 132,179.7 
											132,189.2 136,189.2 136,196.7 142,196.7 142,202.4 148,202.4 148,208.1 151,208.1 151,211.9 158,211.9 158,219.4 
											161,219.4 161,221.3 164,221.3 164,227 										"/>
									</g>
									<g>
										<polyline id="path-5_1_" class="st11" points="21,87 28,87 28,92.7 31,92.7 31,96.5 40,96.5 40,100.2 47,100.2 47,109.7 
											51,109.7 51,111.6 56,111.6 56,117.3 61,117.3 61,124.8 64,124.8 64,130.5 75,130.5 75,136.2 83,136.2 83,140 91,140 
											91,145.6 101,145.6 101,151.3 108,151.3 108,155.1 112,155.1 112,162.7 116,162.7 116,174 123,174 123,179.7 132,179.7 
											132,189.2 136,189.2 136,196.7 142,196.7 142,202.4 148,202.4 148,208.1 151,208.1 151,211.9 158,211.9 158,219.4 
											161,219.4 161,221.3 164,221.3 164,227 										"/>
									</g>
								</g>
								<polygon id="Rectangle-3-Copy-3" class="st0" points="20,227 310,227 310,228 20,228 								"/>
							</g>
						</g>
					</g>
				</g>
			</g>
		</g>
	</g>
</g>
</svg>
