<svg xmlns="http://www.w3.org/2000/svg" xmlns:xlink="http://www.w3.org/1999/xlink" viewBox="0 0 308.15 246.19"><defs><style>.cls-1{fill:#e9ebf3;}.cls-2{fill:#606584;fill-opacity:0.25;}.cls-3,.cls-5{fill:none;stroke-width:2px;}.cls-3{stroke:#8bcd53;}.cls-4{fill:url(#Безымянный_градиент);}.cls-5{stroke:#de2349;}.cls-6{fill:url(#Безымянный_градиент_2);}</style><linearGradient id="Безымянный_градиент" x1="-149.31" y1="518.25" x2="-149.31" y2="517.25" gradientTransform="matrix(144, 0, 0, -155, 21591.27, 80400)" gradientUnits="userSpaceOnUse"><stop offset="0" stop-color="#8bcd53" stop-opacity="0.25"/><stop offset="1" stop-color="#8bcd53" stop-opacity="0.05"/></linearGradient><linearGradient id="Безымянный_градиент_2" x1="-149.3" y1="518.19" x2="-149.3" y2="517.19" gradientTransform="matrix(143, 0, 0, -150, 21586.42, 77805)" gradientUnits="userSpaceOnUse"><stop offset="0" stop-color="#de2349" stop-opacity="0.25"/><stop offset="1" stop-color="#de2349" stop-opacity="0.05"/></linearGradient></defs><title>Слой 1</title><g id="Слой_2" data-name="Слой 2"><g id="Слой_1-2" data-name="Слой 1"><path class="cls-1" d="M18.15,0h1V228h-1Z"/><path class="cls-2" d="M22,246H20.4v-5.21H18.52v-1.11a2,2,0,0,0,2.09-1.47H22Zm8,.19a3,3,0,0,1-3.26-3.2v-5.5h1.65v5.38a1.62,1.62,0,1,0,3.23,0v-5.38H33.3V243A3,3,0,0,1,30,246.19Zm10.86-6.67-1.49.46a1.45,1.45,0,0,0-1.55-1.2,1.2,1.2,0,0,0-1.33,1.08c0,.46.3.84.93,1l1.18.22A2.6,2.6,0,0,1,41,243.55a2.79,2.79,0,0,1-3.07,2.63,3.11,3.11,0,0,1-3.39-2.66l1.54-.41a1.7,1.7,0,0,0,1.86,1.59c.89,0,1.38-.44,1.38-1s-.37-.88-1-1l-1.19-.24A2.47,2.47,0,0,1,34.87,240a2.81,2.81,0,0,1,3-2.67,2.8,2.8,0,0,1,3.05,2.21Zm3.18,4.94h1.32a2.72,2.72,0,0,0,0-5.43H44.06ZM45.44,246h-3v-8.51h3.05a4.26,4.26,0,0,1,0,8.51Zm36.79-4.78-1.57,0a2.48,2.48,0,0,1-.06-.54A2.63,2.63,0,0,1,83.44,238a2.58,2.58,0,0,1,2.81,2.51A2.79,2.79,0,0,1,84.74,243l-1.5.91a1.65,1.65,0,0,0-.68.71H86.3V246H80.54a3.54,3.54,0,0,1,1.83-3.32l1.29-.77a1.53,1.53,0,0,0,.92-1.35,1.06,1.06,0,0,0-1.18-1.06,1.17,1.17,0,0,0-1.23,1.29,1.49,1.49,0,0,0,.06.43Zm11.55,5a3,3,0,0,1-3.26-3.2v-5.5h1.66v5.38a1.61,1.61,0,1,0,3.22,0v-5.38h1.66V243A3,3,0,0,1,93.78,246.19Zm10.86-6.67-1.48.46a1.46,1.46,0,0,0-1.55-1.2,1.2,1.2,0,0,0-1.33,1.08,1,1,0,0,0,.92,1l1.19.22a2.59,2.59,0,0,1,2.37,2.51,2.79,2.79,0,0,1-3.07,2.63,3.1,3.1,0,0,1-3.38-2.66l1.53-.41a1.71,1.71,0,0,0,1.86,1.59c.89,0,1.38-.44,1.38-1s-.37-.88-1-1l-1.19-.24A2.47,2.47,0,0,1,98.63,240a3.08,3.08,0,0,1,6-.46Zm3.18,4.94h1.32a2.72,2.72,0,0,0,0-5.43h-1.34ZM109.2,246h-3v-8.51h3a4.26,4.26,0,0,1,0,8.51Zm38.52-3.46-.73-1.15,2-1.75h-3.41v-1.43h5.51v1.33l-2,1.68a2.32,2.32,0,0,1,2.26,2.38,2.72,2.72,0,0,1-3,2.58,2.79,2.79,0,0,1-3-2.48l1.59-.32a1.37,1.37,0,0,0,1.42,1.37,1.2,1.2,0,0,0,1.32-1.17,1.14,1.14,0,0,0-1.27-1.16,1.94,1.94,0,0,0-.71.12Zm11.14,3.65a3,3,0,0,1-3.27-3.2v-5.5h1.66v5.38a1.62,1.62,0,1,0,3.23,0v-5.38h1.65V243a3,3,0,0,1-3.27,3.2Zm10.86-6.67-1.49.46a1.46,1.46,0,0,0-1.55-1.2,1.2,1.2,0,0,0-1.33,1.08,1,1,0,0,0,.92,1l1.19.22a2.6,2.6,0,0,1,2.38,2.51,2.8,2.8,0,0,1-3.08,2.63,3.1,3.1,0,0,1-3.38-2.66l1.54-.41a1.7,1.7,0,0,0,1.86,1.59c.88,0,1.38-.44,1.38-1s-.38-.88-1-1l-1.18-.24A2.47,2.47,0,0,1,163.7,240a3.09,3.09,0,0,1,6-.46Zm3.18,4.94h1.32a2.72,2.72,0,0,0,0-5.43H172.9Zm1.38,1.54h-3v-8.51h3a4.26,4.26,0,0,1,0,8.51Zm35.26-1.67V242.6l3.27-4.39h2v4.71h1.29v1.41h-1.29V246h-1.63v-1.67Zm3.68-1.41v-3l-2.22,3Zm10.21,3.27a3,3,0,0,1-3.26-3.2v-5.5h1.65v5.38a1.62,1.62,0,1,0,3.23,0v-5.38h1.66V243a3,3,0,0,1-3.28,3.2Zm10.86-6.67-1.49.46a1.44,1.44,0,0,0-1.54-1.2,1.21,1.21,0,0,0-1.34,1.08c0,.46.3.84.93,1L232,241a2.6,2.6,0,0,1,2.37,2.51,2.79,2.79,0,0,1-3.07,2.63,3.09,3.09,0,0,1-3.38-2.66l1.53-.41a1.7,1.7,0,0,0,1.86,1.59c.89,0,1.38-.44,1.38-1s-.37-.88-1-1l-1.19-.24a2.47,2.47,0,0,1-2.23-2.43,3.08,3.08,0,0,1,6-.46Zm3.18,4.94h1.32a2.72,2.72,0,0,0,0-5.43h-1.33Zm1.38,1.54h-3v-8.51h3a4.26,4.26,0,0,1,0,8.51Zm35.79-2.18,1.54-.35a1.37,1.37,0,0,0,1.42,1.31,1.29,1.29,0,1,0,0-2.58,1.64,1.64,0,0,0-1.2.52c-.5-.18-1-.35-1.51-.51l.93-4h4.39v1.43H276.9l-.38,1.72a2.11,2.11,0,0,1,1.4-.48,2.45,2.45,0,0,1,2.67,2.6,2.76,2.76,0,0,1-3,2.71,2.8,2.8,0,0,1-3-2.37Zm13.41,2.37a3,3,0,0,1-3.26-3.2v-5.5h1.65v5.38a1.62,1.62,0,1,0,3.23,0v-5.38h1.66V243A3,3,0,0,1,288.05,246.19Zm10.86-6.67-1.49.46a1.44,1.44,0,0,0-1.54-1.2,1.21,1.21,0,0,0-1.34,1.08c0,.46.3.84.93,1l1.19.22a2.6,2.6,0,0,1,2.37,2.51,2.79,2.79,0,0,1-3.07,2.63,3.09,3.09,0,0,1-3.38-2.66l1.53-.41A1.7,1.7,0,0,0,296,244.7c.89,0,1.38-.44,1.38-1s-.37-.88-1-1l-1.19-.24A2.47,2.47,0,0,1,292.9,240a3.08,3.08,0,0,1,6-.46Zm3.18,4.94h1.32a2.72,2.72,0,0,0,0-5.43h-1.33Zm1.38,1.54h-3v-8.51h3a4.26,4.26,0,0,1,0,8.51ZM4.15,225.71a3.76,3.76,0,0,0,2-.42,1.29,1.29,0,0,0,.64-1.18A1.26,1.26,0,0,0,6.13,223a3.66,3.66,0,0,0-2-.43,3.68,3.68,0,0,0-2,.43,1.27,1.27,0,0,0-.63,1.16,1.3,1.3,0,0,0,.63,1.18A3.78,3.78,0,0,0,4.15,225.71Zm0,1.65a5,5,0,0,1-2.77-.68,3,3,0,0,1-1.31-2.57,2.89,2.89,0,0,1,1.31-2.55,5,5,0,0,1,2.77-.7,4.94,4.94,0,0,1,2.77.7,2.89,2.89,0,0,1,1.31,2.55,3,3,0,0,1-1.31,2.57A4.93,4.93,0,0,1,4.15,227.36Zm1.63-44.12-.34-1.55a1.34,1.34,0,0,0,1.3-1.41,1.26,1.26,0,0,0-1.27-1.35,1.27,1.27,0,0,0-1.31,1.38,1.58,1.58,0,0,0,.53,1.2c-.06.16-.47,1.35-.51,1.52l-4-.93v-4.39H1.61V181l1.71.39A2.17,2.17,0,0,1,2.84,180a2.45,2.45,0,0,1,2.61-2.66,2.76,2.76,0,0,1,2.71,3A2.8,2.8,0,0,1,5.78,183.24Zm-1.7-8.41a3.76,3.76,0,0,0,2-.42,1.31,1.31,0,0,0,.64-1.18,1.28,1.28,0,0,0-.64-1.16,3.66,3.66,0,0,0-2-.43,3.66,3.66,0,0,0-2,.43,1.28,1.28,0,0,0-.64,1.16,1.31,1.31,0,0,0,.64,1.18A3.76,3.76,0,0,0,4.08,174.83Zm0,1.66a4.93,4.93,0,0,1-2.77-.69A2.93,2.93,0,0,1,0,173.23a2.89,2.89,0,0,1,1.31-2.55,4.94,4.94,0,0,1,2.77-.7,4.94,4.94,0,0,1,2.77.7,2.89,2.89,0,0,1,1.31,2.55,2.93,2.93,0,0,1-1.31,2.57A4.93,4.93,0,0,1,4.08,176.49ZM8,129.08v1.65H2.77v1.87H1.66a2,2,0,0,0-1.47-2.09v-1.43Zm-3.89-3.14a3.76,3.76,0,0,0,2-.42,1.29,1.29,0,0,0,.64-1.18,1.26,1.26,0,0,0-.64-1.16,3.66,3.66,0,0,0-2-.43,3.68,3.68,0,0,0-2,.43,1.27,1.27,0,0,0-.63,1.16,1.3,1.3,0,0,0,.63,1.18A3.78,3.78,0,0,0,4.09,125.94Zm0,1.65a5,5,0,0,1-2.77-.68A3,3,0,0,1,0,124.34a2.89,2.89,0,0,1,1.31-2.55,5,5,0,0,1,2.77-.7,4.94,4.94,0,0,1,2.77.7,2.89,2.89,0,0,1,1.31,2.55,3,3,0,0,1-1.31,2.57A4.93,4.93,0,0,1,4.09,127.59Zm0-9.12a3.76,3.76,0,0,0,2-.42,1.29,1.29,0,0,0,.64-1.17,1.26,1.26,0,0,0-.64-1.17,3.66,3.66,0,0,0-2-.43,3.68,3.68,0,0,0-2,.43,1.28,1.28,0,0,0-.63,1.17,1.3,1.3,0,0,0,.63,1.17A3.78,3.78,0,0,0,4.09,118.47Zm0,1.66a5,5,0,0,1-2.77-.68A3,3,0,0,1,0,116.88a2.92,2.92,0,0,1,1.31-2.56,5,5,0,0,1,2.77-.69,4.93,4.93,0,0,1,2.77.69,2.92,2.92,0,0,1,1.31,2.56,3,3,0,0,1-1.31,2.57A5,5,0,0,1,4.09,120.13ZM8,73.14v1.65H2.77v1.87H1.66A2,2,0,0,0,.19,74.57V73.14ZM5.8,71.82l-.35-1.54a1.37,1.37,0,0,0,1.31-1.42,1.29,1.29,0,1,0-2.58,0,1.64,1.64,0,0,0,.52,1.2c-.06.15-.46,1.34-.51,1.51l-4-.93V66.29H1.62v3.27l1.72.38a2.11,2.11,0,0,1-.48-1.4,2.45,2.45,0,0,1,2.6-2.67,2.76,2.76,0,0,1,2.71,3A2.8,2.8,0,0,1,5.8,71.82ZM4.09,63.41a3.76,3.76,0,0,0,2-.42,1.29,1.29,0,0,0,.64-1.17,1.26,1.26,0,0,0-.64-1.17,3.66,3.66,0,0,0-2-.43,3.68,3.68,0,0,0-2,.43,1.28,1.28,0,0,0-.63,1.17A1.3,1.3,0,0,0,2.11,63,3.78,3.78,0,0,0,4.09,63.41Zm0,1.66a5,5,0,0,1-2.77-.69,3.16,3.16,0,0,1,0-5.12,5,5,0,0,1,2.77-.7,4.94,4.94,0,0,1,2.77.7,3.16,3.16,0,0,1,0,5.12A4.93,4.93,0,0,1,4.09,65.07ZM3.21,19.72l0,1.57a5,5,0,0,1-.54.06A2.63,2.63,0,0,1,0,18.5a2.57,2.57,0,0,1,2.51-2.8,2.8,2.8,0,0,1,2.41,1.51l.91,1.5a1.58,1.58,0,0,0,.71.67V15.65H8v5.76a3.57,3.57,0,0,1-3.33-1.84l-.77-1.28a1.51,1.51,0,0,0-1.34-.93,1.07,1.07,0,0,0-1.07,1.18,1.18,1.18,0,0,0,1.3,1.24A2,2,0,0,0,3.21,19.72Zm.89-6.59a3.78,3.78,0,0,0,2-.42,1.3,1.3,0,0,0,.63-1.18,1.27,1.27,0,0,0-.63-1.16,3.68,3.68,0,0,0-2-.43,3.66,3.66,0,0,0-2,.43,1.26,1.26,0,0,0-.64,1.16,1.29,1.29,0,0,0,.64,1.18A3.76,3.76,0,0,0,4.1,13.13Zm0,1.65a4.93,4.93,0,0,1-2.77-.68A3,3,0,0,1,0,11.53,2.89,2.89,0,0,1,1.33,9a4.94,4.94,0,0,1,2.77-.7A5,5,0,0,1,6.87,9a2.89,2.89,0,0,1,1.31,2.55A3,3,0,0,1,6.87,14.1,5,5,0,0,1,4.1,14.78Zm0-9.12a3.78,3.78,0,0,0,2-.42,1.3,1.3,0,0,0,.63-1.17A1.28,1.28,0,0,0,6.08,2.9a3.68,3.68,0,0,0-2-.43,3.66,3.66,0,0,0-2,.43,1.26,1.26,0,0,0-.64,1.17,1.29,1.29,0,0,0,.64,1.17A3.76,3.76,0,0,0,4.1,5.66Zm0,1.66a5,5,0,0,1-2.77-.68A3,3,0,0,1,0,4.07,2.92,2.92,0,0,1,1.33,1.51,4.93,4.93,0,0,1,4.1.82a5,5,0,0,1,2.77.69A2.92,2.92,0,0,1,8.18,4.07,3,3,0,0,1,6.87,6.64,5,5,0,0,1,4.1,7.32Z"/><path class="cls-1" d="M18.15,227h290v1h-290Z"/><path id="b" class="cls-3" d="M19.15,72h1.79l1.85,1.07,5.77,1.41,5.85,0h.43l4.6,1L40,85.18l5.92,1.73.22,2.53,3.7,1.8,1.07,1,3.47,2,1.46.58,2.79,0,3.53,1,.71.42L63.09,98l2,.33.16,2.24,1.81.6v2.3l1.61,1.68h1.71l2.79,1.71,3.56,1,4.15,1.26,1.29,3.92,0,12.59,2.89.38,1.42,2.64,1.63.09,1.64,6.73,4,2.06,2.68.23.13,1,1.44,4.44,1.46,2.94h1.85l1.94,2.14,2.9.21.4,1.87h2.74l1.16,4.64h3.48l.48,1.34,3.11.3.3,1.75h4.37l.29,1.67H126l1,1.34h2.73l.31,1.83h3.43l1.53,2.78.53,1.59v2.75h2.12l3.45.21v25.93l3.3,1.55,1.46,1.35,3,.2.41,1.38h2.31v13.13l.79,2.76.23.89,2.35,1.83,2,1.07h2.57l3.63,3V227"/><path class="cls-4" d="M19.15,72h.79l2.85,1.07,5.77,1.41,5.85,0h.43l4.6,1L40,85.18l5.92,1.73.22,2.53,3.7,1.8,1.07,1,3.47,2,1.46.58,2.79,0,3.53,1,.71.42L63.09,98l2,.33.16,2.24,1.81.6v2.3l1.61,1.68h1.71l2.79,1.71,3.56,1,4.15,1.26,1.29,3.92,0,12.59,2.89.38,1.42,2.64,1.63.09,1.64,6.73,4,2.06,2.68.23.13,1,1.44,4.44,1.46,2.94h1.85l1.94,2.14,2.9.21.4,1.87h2.74l1.16,4.64h3.48l.48,1.34,3.11.3.3,1.75h4.37l.29,1.67H126l1,1.34h2.73l.31,1.83h3.43l1.53,2.78.53,1.59v2.75h2.12l3.45.21v25.93l3.3,1.55,1.46,1.35,3,.2.41,1.38h2.31v13.13l.79,2.76.23.89,2.35,1.83,2,1.07h2.57l3.63,3V227h-144V72Z"/><path id="e" class="cls-5" d="M308.15,77H294.78v4.47l-14.07,2.45-.29,1.61-2.24.39v8.47l-2.29.3-.19,1.24-1.62.26-.19.94-5.39,1.36-2,8.38-1.62.41-.2,1H263l-2.63,8.81-6,2.52-.42,1.35-1.22.1v28l-2,.25-.86,7.09-2.78,1.19-.78,4.34h-3.12v1.39l-4.51,1.84.14.26-1.32.27-1.84,7.39-3.81.93-1.39,2.76-1.64.17L228.6,178l-1,.41-.93,5.87L220.79,186l-.34,1.94-10.64,3.59-.61,1.66-6.35.83-.86,3.87-16.81,8.93-.67,2.88-5.87,1.8.12.29h-2.63l-.4,1-1.07.1-.37,1.55-1.81.43v3.81h-7.33V227"/><path class="cls-6" d="M308.15,77H294.78v4.47l-14.07,2.45-.29,1.61-2.24.39v8.47l-2.29.3-.19,1.24-1.62.26-.19.94-5.39,1.36-2,8.38-1.62.41-.2,1H263l-2.63,8.81-6,2.52-.42,1.35-1.22.1v28l-2,.25-.86,7.09-2.78,1.19-.78,4.34h-3.12v1.39l-4.51,1.84.14.26-1.32.27-1.84,7.39-3.81.93-1.39,2.76-1.64.17L228.6,178l-1,.41-.93,5.87L220.79,186l-.34,1.94-10.64,3.59-.61,1.66-6.35.83-.86,3.87-16.81,8.93-.67,2.88-5.87,1.8.12.29h-2.63l-.4,1-1.07.1-.37,1.55-1.81.43v3.81h-7.33V227h143Z"/></g></g></svg>