<?xml version="1.0" encoding="UTF-8"?>
<svg width="96px" height="96px" viewBox="0 0 96 96" version="1.1" xmlns="http://www.w3.org/2000/svg" xmlns:xlink="http://www.w3.org/1999/xlink">
    <!-- Generator: Sketch 51.3 (57544) - http://www.bohemiancoding.com/sketch -->
    <title>Group 66</title>
    <desc>Created with Sketch.</desc>
    <defs></defs>
    <g id="Page-1" stroke="none" stroke-width="1" fill="none" fill-rule="evenodd">
        <g id="fluence_desktop" transform="translate(-735.000000, -2098.000000)">
            <g id="Group-52" transform="translate(165.000000, 1758.000000)">
                <g id="Group-43" transform="translate(0.000000, 340.000000)">
                    <g id="Group-39" transform="translate(570.000000, 0.000000)">
                        <g id="Group-40">
                            <g id="Group-66">
                                <rect id="Rectangle-6" stroke="#FFFFFF" x="0.5" y="0.5" width="95" height="95"></rect>
                                <g id="Group-61" transform="translate(30.000000, 30.000000)" stroke="#2E72FE">
                                    <g id="Group-60" transform="translate(2.000000, 0.000000)" fill="#FFFFFF" stroke-width="2">
                                        <path d="M3.87614331,25 C7.01222988,23.7284814 11.3563698,23 16,23 C20.6436302,23 24.9877701,23.7284814 28.1238567,25 L33,25 L33,30 C33,34.1335425 25.3561132,37 16,37 C6.64388678,37 -1,34.1335425 -1,30 L-1,25 L3.87614331,25 Z" id="Combined-Shape"></path>
                                        <path d="M3.87614331,17 C7.01222988,15.7284814 11.3563698,15 16,15 C20.6436302,15 24.9877701,15.7284814 28.1238567,17 L33,17 L33,22 C33,26.1335425 25.3561132,29 16,29 C6.64388678,29 -1,26.1335425 -1,22 L-1,17 L3.87614331,17 Z" id="Combined-Shape"></path>
                                        <path d="M-1,14 L-1,7 L33,7 L33,14 C33,18.1335425 25.3561132,21 16,21 C6.64388678,21 -1,18.1335425 -1,14 Z" id="Combined-Shape"></path>
                                        <ellipse id="Oval-Copy-3" cx="16" cy="6" rx="17" ry="7"></ellipse>
                                    </g>
                                    <rect id="Rectangle" fill="#D8D8D8" x="0.5" y="6.5" width="1" height="23"></rect>
                                    <rect id="Rectangle-Copy-4" fill="#D8D8D8" x="34.5" y="6.5" width="1" height="23"></rect>
                                </g>
                            </g>
                        </g>
                    </g>
                </g>
            </g>
        </g>
    </g>
</svg>