<svg xmlns="http://www.w3.org/2000/svg" width="20" height="20" viewBox="0 0 20 20">
    <path fill="#2E72FE" fill-rule="nonzero" d="M0 3v14a3 3 0 0 0 3 3h3.839c.658 0 .682-.222.682-.495 0-.243-.008-.888-.013-1.745-2.782.62-3.369-1.376-3.369-1.376-.454-1.185-1.11-1.5-1.11-1.5-.908-.637.069-.625.069-.625 1.003.073 1.531 1.058 1.531 1.058.892 1.568 2.341 1.115 2.91.853.092-.663.35-1.116.636-1.372-2.22-.259-4.555-1.14-4.555-5.072 0-1.12.39-2.037 1.029-2.754-.103-.26-.446-1.303.098-2.716 0 0 .84-.276 2.75 1.052A9.349 9.349 0 0 1 10 4.963c.85.004 1.705.117 2.504.345 1.909-1.328 2.747-1.052 2.747-1.052.546 1.413.203 2.457.1 2.716.64.717 1.028 1.634 1.028 2.754 0 3.942-2.339 4.81-4.566 5.064.359.317.678.943.678 1.9 0 1.372-.012 2.479-.012 2.815 0 .275 0 .494.688.494H17A3 3 0 0 0 20 17V3a3 3 0 0 0-3-3H3a3 3 0 0 0-3 3z"/>
</svg>
