<?xml version="1.0" encoding="UTF-8"?>
<svg width="96px" height="96px" viewBox="0 0 96 96" version="1.1" xmlns="http://www.w3.org/2000/svg" xmlns:xlink="http://www.w3.org/1999/xlink">
    <!-- Generator: Sketch 51.3 (57544) - http://www.bohemiancoding.com/sketch -->
    <title>Group 62</title>
    <desc>Created with Sketch.</desc>
    <defs>
        <linearGradient x1="50%" y1="0%" x2="50%" y2="100%" id="linearGradient-1">
            <stop stop-color="#2E72FE" offset="0%"></stop>
            <stop stop-color="#2E72FE" stop-opacity="0" offset="100%"></stop>
        </linearGradient>
        <linearGradient x1="50%" y1="100%" x2="50%" y2="3.061617e-15%" id="linearGradient-2">
            <stop stop-color="#2E72FE" offset="0%"></stop>
            <stop stop-color="#2E72FE" stop-opacity="0" offset="100%"></stop>
        </linearGradient>
    </defs>
    <g id="Page-1" stroke="none" stroke-width="1" fill="none" fill-rule="evenodd">
        <g id="fluence_desktop" transform="translate(-165.000000, -1942.000000)">
            <g id="Group-52" transform="translate(165.000000, 1758.000000)">
                <g id="Group-42" transform="translate(0.000000, 184.000000)">
                    <g id="Group-36">
                        <g id="Group-59">
                            <g id="Group-62">
                                <rect id="Rectangle-6-Copy" stroke="#E9EBF3" x="0.5" y="0.5" width="95" height="95"></rect>
                                <g id="Group-58" transform="translate(21.000000, 21.000000)" stroke-width="2">
                                    <rect id="Rectangle" stroke="#2E72FE" x="1" y="29" width="12" height="10" rx="3"></rect>
                                    <rect id="Rectangle-Copy" stroke="#2E72FE" x="21" y="29" width="12" height="10" rx="3"></rect>
                                    <rect id="Rectangle-Copy-3" stroke="#2E72FE" x="21" y="9" width="12" height="10" rx="3"></rect>
                                    <rect id="Rectangle-Copy-2" stroke="#2E72FE" x="41" y="29" width="12" height="10" rx="3"></rect>
                                    <path d="M27,19 L27,29" id="Path-9" stroke="#2E72FE"></path>
                                    <path d="M27.0000001,21 C27.0000001,21 27.0000001,21 27.0000001,21 L27.0000003,21 C27.0000002,22.6568544 25.6568543,24.0000001 24,24 L10,24 C8.34314575,24 7,25.3431458 7,27 L7,29" id="Path-10" stroke="#2E72FE"></path>
                                    <path d="M47.0000001,21 C47.0000001,21 47.0000001,21 47.0000001,21 L47.0000003,21 C47.0000002,22.6568544 45.6568543,24.0000001 44,24 L30,24 C28.3431458,24 27,25.3431458 27,27 L27,29" id="Path-10-Copy" stroke="#2E72FE" transform="translate(37.000000, 25.000000) scale(-1, 1) translate(-37.000000, -25.000000) "></path>
                                    <path d="M7,40 L7,48" id="Path-11" stroke="url(#linearGradient-1)"></path>
                                    <path d="M47,40 L47,48" id="Path-11-Copy-2" stroke="url(#linearGradient-1)"></path>
                                    <path d="M27,40 L27,48" id="Path-11-Copy-3" stroke="url(#linearGradient-1)"></path>
                                    <path d="M27,5.68434189e-14 L27,8" id="Path-11-Copy-4" stroke="url(#linearGradient-2)"></path>
                                </g>
                            </g>
                        </g>
                    </g>
                </g>
            </g>
        </g>
    </g>
</svg>