<?xml version="1.0" encoding="UTF-8"?>
<svg width="14px" height="14px" viewBox="0 0 14 14" version="1.1" xmlns="http://www.w3.org/2000/svg" xmlns:xlink="http://www.w3.org/1999/xlink">
    <!-- Generator: Sketch 51.3 (57544) - http://www.bohemiancoding.com/sketch -->
    <title>Group 16</title>
    <desc>Created with Sketch.</desc>
    <defs></defs>
    <g id="Page-1" stroke="none" stroke-width="1" fill="none" fill-rule="evenodd">
        <g id="fluence_desktop" transform="translate(-857.000000, -2844.000000)" fill="#2E72FE" fill-rule="nonzero">
            <g id="Group-50" transform="translate(165.000000, 2744.000000)">
                <g id="Group-46" transform="translate(0.000000, 76.000000)">
                    <g id="Group-41-Copy-3" transform="translate(380.000000, 0.000000)">
                        <g id="Group-16" transform="translate(312.000000, 24.000000)">
                            <path d="M6,1 L6,1 C6,1.55228475 5.55228475,2 5,2 L3,2 C2.44771525,2 2,2.44771525 2,3 L2,11 C2,11.5522847 2.44771525,12 3,12 L11,12 C11.5522847,12 12,11.5522847 12,11 L12,9 C12,8.44771525 12.4477153,8 13,8 L13,8 C13.5522847,8 14,8.44771525 14,9 L14,11 C14,12.6568542 12.6568542,14 11,14 L3,14 C1.34314575,14 0,12.6568542 0,11 L0,3 C0,1.34314575 1.34314575,0 3,0 L5,0 C5.55228475,-1.01453063e-16 6,0.44771525 6,1 Z" id="Combined-Shape"></path>
                            <path d="M13,6 L13,6 C12.4477153,6 12,5.55228475 12,5 L12,2 L9,2 C8.44771525,2 8,1.55228475 8,1 L8,1 C8,0.44771525 8.44771525,4.98643437e-15 9,4.88498131e-15 L11,1.42108547e-14 L13,0 C13.5522847,-1.15463195e-14 14,0.44771525 14,1 L14,5 C14,5.55228475 13.5522847,6 13,6 Z" id="Combined-Shape"></path>
                            <path d="M11.2928932,1.29289322 C11.6834175,0.902368927 12.3165825,0.902368927 12.7071068,1.29289322 C13.0976311,1.68341751 13.0976311,2.31658249 12.7071068,2.70710678 L7.70710678,7.70710678 C7.31658249,8.09763107 6.68341751,8.09763107 6.29289322,7.70710678 C5.90236893,7.31658249 5.90236893,6.68341751 6.29289322,6.29289322 L11.2928932,1.29289322 Z" id="Path-4"></path>
                        </g>
                    </g>
                </g>
            </g>
        </g>
    </g>
</svg>