<svg xmlns="http://www.w3.org/2000/svg" width="130" height="50" viewBox="0 0 130 50">
    <path fill="#606584" fill-rule="nonzero" d="M129.798 11.706V50H11.708L0 38.294V0h118.09l11.708 11.706zM12.121 26.768h4.645c.639 0 1.257-.074 1.854-.221a4.625 4.625 0 0 0 1.58-.704 3.666 3.666 0 0 0 1.1-1.235c.278-.502.417-1.108.417-1.818 0-.55-.085-1.028-.254-1.437a3.16 3.16 0 0 0-.663-1.025 3.174 3.174 0 0 0-.927-.653 4.524 4.524 0 0 0-1.029-.341 2.8 2.8 0 0 0 1.02-.522c.27-.228.492-.493.661-.794.17-.301.292-.63.367-.984.075-.355.112-.72.112-1.095 0-.684-.112-1.27-.336-1.758a2.93 2.93 0 0 0-.968-1.186c-.42-.301-.93-.522-1.528-.663a8.729 8.729 0 0 0-1.996-.21H12.12v14.646zm2.525-12.122h1.705c.716 0 1.284.16 1.705.48.42.32.63.813.63 1.48 0 .57-.171 1.06-.515 1.469-.343.408-.873.612-1.589.612h-1.936v-4.04zm0 6.061h1.703c.36 0 .71.033 1.05.099.341.065.645.177.912.335.267.157.48.364.64.62.16.257.24.575.24.956 0 .342-.066.641-.2.897a1.71 1.71 0 0 1-.56.63c-.24.165-.52.29-.841.375a3.95 3.95 0 0 1-1.021.128h-1.923v-4.04zm18.274 6.06h2.434c-.054-.119-.181-.414-.383-.884-.2-.47-.452-1.054-.754-1.75l-1.005-2.326c-.369-.855-.747-1.727-1.136-2.615-.389-.888-.768-1.76-1.136-2.615l-1.006-2.326a287.514 287.514 0 0 0-1.156-2.635c-.054.12-.181.414-.382.885-.201.47-.453 1.054-.754 1.75l-1.006 2.326c-.368.855-.747 1.727-1.136 2.615-.389.888-.767 1.76-1.136 2.615l-1.006 2.326c-.301.696-.553 1.28-.754 1.75-.2.47-.328.765-.382.885h2.433l1.61-3.818h5.047c.187.45.368.885.543 1.302.174.418.335.799.482 1.144a177.663 177.663 0 0 1 .583 1.372zm-5.647-6.06l1.554-3.348c0-.013.029-.1.086-.26.056-.16.099-.304.127-.432.029.128.071.272.128.433.057.16.092.246.107.26l1.533 3.347h-3.535zm9.596-8.586v14.647h4.422c.97 0 1.89-.164 2.762-.493a6.805 6.805 0 0 0 2.29-1.416 6.793 6.793 0 0 0 1.562-2.24c.387-.877.58-1.865.58-2.964 0-.897-.141-1.798-.423-2.702a6.549 6.549 0 0 0-1.366-2.42c-.629-.71-1.444-1.29-2.447-1.739-1.002-.448-2.224-.673-3.666-.673H36.87zm4.226 12.626h-1.701v-10.1h2.008c.547 0 1.12.091 1.722.275a4.78 4.78 0 0 1 1.64.877c.491.402.898.925 1.219 1.572.321.646.482 1.431.482 2.357 0 .816-.134 1.533-.4 2.152a4.43 4.43 0 0 1-1.117 1.572 4.761 4.761 0 0 1-1.701.969 6.796 6.796 0 0 1-2.152.326zm27.087-12.626H65.64c-.291.799-.593 1.59-.904 2.376-.31.785-.605 1.55-.883 2.295-.278.746-.533 1.461-.765 2.146a18.56 18.56 0 0 0-.546 1.927c-.026.106-.05.22-.07.34-.02.119-.043.239-.069.358a3.51 3.51 0 0 1-.06-.349 1.214 1.214 0 0 0-.099-.35l-.228-.618-.407-1.108a85.895 85.895 0 0 0-.537-1.417c-.198-.513-.397-1.028-.595-1.547-.464-1.225-.98-2.576-1.55-4.053h-2.343a73.216 73.216 0 0 0 .735 2.276c.16.506.331 1.038.517 1.597-.371.812-.715 1.557-1.033 2.236-.133.293-.265.582-.397.868-.133.286-.252.55-.358.789l-.278.628c-.08.18-.126.303-.139.37-.026.08-.07.196-.129.35-.06.152-.09.269-.09.348a7.836 7.836 0 0 1-.079-.359 7.836 7.836 0 0 0-.08-.36c-.304-1.157-.73-2.481-1.28-3.972a356.42 356.42 0 0 1-1.718-4.77h-2.76a904.875 904.875 0 0 0 2.88 7.575 904.874 904.874 0 0 1 2.879 7.576c.146-.333.311-.706.496-1.118.186-.413.378-.842.576-1.288l.606-1.357c.205-.46.4-.902.586-1.328.437-.998.893-2.023 1.37-3.074a.783.783 0 0 0 .06-.16.735.735 0 0 0 .03-.14c.006-.053.016-.106.03-.16.026.12.046.2.059.24.013.04.046.12.1.24l3.256 8.105c.37-1.012.79-2.13 1.26-3.354l1.47-3.823c.51-1.324 1.023-2.661 1.54-4.012.516-1.351 1.012-2.658 1.489-3.923zm11.203 14.647h2.433c-.053-.12-.18-.415-.382-.885a380.86 380.86 0 0 0-.754-1.75c-.302-.696-.637-1.471-1.005-2.326-.37-.855-.748-1.727-1.137-2.615-.388-.888-.767-1.76-1.136-2.615-.368-.855-.704-1.63-1.005-2.326a287.514 287.514 0 0 0-1.157-2.635c-.053.12-.18.414-.382.885-.2.47-.452 1.054-.754 1.75l-1.005 2.326c-.369.855-.748 1.727-1.136 2.615-.39.888-.768 1.76-1.137 2.615-.368.855-.703 1.63-1.005 2.326-.302.696-.553 1.28-.754 1.75-.201.47-.329.765-.382.885h2.433l1.609-3.818h5.047l.543 1.302c.174.418.335.799.483 1.144a177.65 177.65 0 0 1 .583 1.372zm-5.648-6.06l1.555-3.349c0-.013.028-.1.085-.26.057-.16.1-.304.128-.432.028.128.071.272.128.433.057.16.092.246.106.26l1.534 3.347h-3.536zM91.92 12.12h-9.596v2.35h3.526v12.297h2.464V14.472h3.606v-2.35zm2.525 14.647h10.101v-2.29H96.92V20.58h6.531v-2.29H96.92V14.35h7.342v-2.23h-9.817v14.647zm12.627 0h2.496v-5.043h2.292c.505.75 1.03 1.543 1.576 2.38.545.838 1.125 1.725 1.739 2.663h3.008a663.3 663.3 0 0 1-1.934-2.974l-.87-1.356-.88-1.376a4.196 4.196 0 0 0 1.719-1.848c.178-.376.307-.764.39-1.166.081-.402.122-.804.122-1.205 0-.737-.13-1.4-.389-1.99a4.09 4.09 0 0 0-1.095-1.486c-.47-.402-1.043-.71-1.718-.924-.676-.215-1.423-.322-2.241-.322h-4.215v14.647zm2.525-7.071v-5.05h1.974c.518 0 .943.088 1.276.264.332.177.594.394.787.652.193.258.326.533.399.825.073.292.11.553.11.784 0 .244-.04.512-.12.804a2.26 2.26 0 0 1-.419.815 2.49 2.49 0 0 1-.797.641c-.333.177-.751.265-1.256.265h-1.954zm-59.09 19.67l-.436-.877a.62.62 0 0 1-.174.106c-.098.048-.22.095-.369.142a4.382 4.382 0 0 1-.496.124 2.97 2.97 0 0 1-.567.053c-.365 0-.7-.065-1.006-.194a2.436 2.436 0 0 1-1.294-1.268 2.124 2.124 0 0 1 .009-1.754c.13-.283.307-.533.534-.749a2.56 2.56 0 0 1 .808-.514c.311-.127.65-.19 1.015-.19a3.711 3.711 0 0 1 .7.07c.12.024.234.054.344.09.11.035.207.08.289.132l.15-.257a6.1 6.1 0 0 1 .105-.172l.09-.147a2.85 2.85 0 0 1 .118-.177 1.203 1.203 0 0 0-.298-.173 2.817 2.817 0 0 0-.444-.146 4.59 4.59 0 0 0-1.091-.133c-.485 0-.944.083-1.375.248a3.5 3.5 0 0 0-1.13.692 3.243 3.243 0 0 0-.76 1.054 3.187 3.187 0 0 0-.279 1.338c0 .437.08.85.237 1.24.157.39.384.733.68 1.028.296.296.657.53 1.082.705a3.77 3.77 0 0 0 1.44.261c.253 0 .49-.018.714-.053.224-.036.427-.08.61-.133.182-.053.341-.11.477-.173.135-.062.24-.12.316-.173zm5.55.532h1.015a182.142 182.142 0 0 1-.555-1.295 314.244 314.244 0 0 0-.963-2.236 265.184 265.184 0 0 1-1.306-3.065l-.202-.475L51.01 39.9h1.015l.808-1.938h2.405c.088.218.174.427.259.63a253.97 253.97 0 0 0 .427 1.01c.057.13.1.23.132.298zm-2.52-3.03l.669-1.704c.006-.012.02-.053.042-.123.022-.07.039-.135.05-.194a2.418 2.418 0 0 0 .084.317c.022.064.056.152.1.263a55.87 55.87 0 0 1 .348.883c.07.179.143.364.222.558h-1.516zm5.555 3.03h.972v-2.346h.902c.395 0 .731-.063 1.008-.19.277-.126.501-.291.672-.493.171-.203.295-.432.371-.689.077-.256.115-.514.115-.774 0-.332-.056-.626-.168-.883a1.824 1.824 0 0 0-.473-.652 2.037 2.037 0 0 0-.725-.403 2.989 2.989 0 0 0-.924-.136h-1.75V39.9zm1.01-3.03v-2.526h.852c.222 0 .408.042.559.126.15.084.271.189.362.315.09.125.155.26.192.406.037.145.055.279.055.402 0 .116-.018.248-.055.396-.037.149-.1.287-.188.416a1.112 1.112 0 0 1-.362.33 1.11 1.11 0 0 1-.571.135H60.1zm5.05-3.536V39.9h1.01v-6.566h-1.01zm7.071 0h-4.04v.942h1.535V39.9h.935v-5.624h1.57v-.942zm6.056 6.566h1.015a182.51 182.51 0 0 1-.554-1.295 314.244 314.244 0 0 0-.964-2.236 265.185 265.185 0 0 1-1.306-3.065 74.61 74.61 0 0 0-.202-.475L73.232 39.9h1.015l.808-1.938h2.406c.087.218.173.427.258.63a254.457 254.457 0 0 0 .428 1.01c.056.13.1.23.131.298zm-3.025-3.03l.67-1.704c.005-.012.019-.053.041-.123.022-.07.04-.135.05-.194a2.418 2.418 0 0 0 .084.317c.022.064.056.152.1.263a55.87 55.87 0 0 1 .348.883c.07.179.144.364.222.558h-1.515zm5.555 3.03h4.04v-.942h-3.094v-5.624h-.946V39.9z" opacity=".4"/>
</svg>
