<svg xmlns="http://www.w3.org/2000/svg" width="32" height="32" viewBox="0 0 32 32">
    <path fill="#FFF" fill-opacity=".5" fill-rule="evenodd" d="M4 0h24a4 4 0 0 1 4 4v24a4 4 0 0 1-4 4H4a4 4 0 0 1-4-4V4a4 4 0 0 1 4-4zm5.134 11.856v7.794a.885.885 0 0 1-.243.774L7 22.67v.296h5.361v-.296l-1.89-2.247a.918.918 0 0 1-.26-.774v-6.74l4.705 10.057h.546l4.042-10.058v8.017c0 .214 0 .255-.143.395l-1.453 1.383V23h7.058v-.296l-1.403-1.35a.407.407 0 0 1-.16-.395V11.04a.407.407 0 0 1 .16-.395L25 9.296V9h-4.975l-3.546 8.667L12.445 9H7.227v.296l1.68 1.984c.166.146.25.36.227.576z"/>
</svg>
