<?xml version="1.0" encoding="UTF-8"?>
<svg width="96px" height="96px" viewBox="0 0 96 96" version="1.1" xmlns="http://www.w3.org/2000/svg" xmlns:xlink="http://www.w3.org/1999/xlink">
    <!-- Generator: Sketch 51.3 (57544) - http://www.bohemiancoding.com/sketch -->
    <title>Group 8</title>
    <desc>Created with Sketch.</desc>
    <defs></defs>
    <g id="Page-1" stroke="none" stroke-width="1" fill="none" fill-rule="evenodd">
        <g id="fluence_desktop" transform="translate(-735.000000, -1942.000000)">
            <g id="Group-52" transform="translate(165.000000, 1758.000000)">
                <g id="Group-42" transform="translate(0.000000, 184.000000)">
                    <g id="Group-37" transform="translate(570.000000, 0.000000)">
                        <g id="Group-19">
                            <g id="Group-8">
                                <rect id="Rectangle-6" stroke="#FFFFFF" x="0.5" y="0.5" width="95" height="95"></rect>
                                <g id="group-8" transform="translate(27.000000, 26.000000)" fill-rule="nonzero">
                                    <path d="M27.241,5.111 L26.684,4.905 L26.218,1.711 C26.0745758,0.72886132 25.2325556,0.000501060993 24.24,1.67615782e-15 L17.762,1.67615782e-15 C16.7686853,-0.000491871328 15.9255339,0.728110193 15.782,1.711 L15.317,4.905 L14.76,5.111 C12.8468528,5.8189393 11.0681292,6.84728503 9.5,8.152 L9.044,8.532 L6.04,7.337 C5.1172634,6.96951375 4.06464457,7.33486445 3.568,8.195 L0.328,13.805 C-0.168674718,14.665229 0.0412617164,15.7596238 0.821,16.375 L3.356,18.376 L3.256,18.961 C3.085,19.958 3,20.973 3,22 C3,23.027 3.086,24.042 3.255,25.04 L3.355,25.624 L0.82,27.625 C0.0406051602,28.2406588 -0.168896785,29.3350084 0.328,30.195 L3.567,35.805 C4.06364457,36.6651355 5.1162634,37.0304863 6.039,36.663 L9.043,35.468 L9.5,35.848 C11.0679001,37.1522626 12.846274,38.1802635 14.759,38.888 L15.316,39.095 L15.782,42.289 C15.9254242,43.2711387 16.7674444,43.9994989 17.76,44 L24.238,44 C25.2313147,44.0004919 26.0744661,43.2718898 26.218,42.289 L26.683,39.095 L27.24,38.889 C29.1531472,38.1810607 30.9318708,37.152715 32.5,35.848 L32.956,35.468 L35.96,36.663 C36.8827366,37.0304863 37.9353554,36.6651355 38.432,35.805 L41.672,30.195 C42.1686747,29.334771 41.9587383,28.2403762 41.179,27.625 L38.644,25.624 L38.744,25.039 C38.914,24.042 38.999,23.027 38.999,22 C38.999,20.973 38.913,19.958 38.744,18.96 L38.644,18.376 L41.179,16.375 C41.9583948,15.7593412 42.1678968,14.6649916 41.671,13.805 L38.432,8.195 C37.9353554,7.33486445 36.8827366,6.96951375 35.96,7.337 L32.956,8.532 L32.499,8.152 C30.9310999,6.8477374 29.152726,5.81973652 27.24,5.112 L27.241,5.111 Z" id="Shape" stroke="#2E72FE" stroke-width="2" fill="#FFFFFF"></path>
                                    <circle id="Oval" stroke="#2E72FE" stroke-width="2" fill="#FFFFFF" cx="21" cy="22" r="11"></circle>
                                    <path d="M18.627,24.196 L18.471,23.753 C18.4425819,23.6730704 18.3668309,23.6197641 18.282,23.62 L16.372,23.62 C16.287536,23.6201874 16.2122953,23.6734162 16.184,23.753 L16.027,24.196 C15.9046495,24.5411614 15.5782049,24.7718756 15.212,24.772 L15.159,24.772 C15.008387,24.7717038 14.867459,24.6976951 14.781718,24.5738691 C14.6959771,24.4500432 14.676285,24.2920869 14.729,24.151 L16.388,19.748 C16.5344798,19.3584964 16.9068639,19.1004162 17.323,19.1 L17.401,19.1 C17.8186293,19.1000513 18.1922474,19.3596301 18.338,19.751 L19.968,24.127 C20.0227872,24.2739328 20.0020203,24.4383933 19.912428,24.5670949 C19.8228358,24.6957965 19.6758144,24.7723681 19.519,24.772 L19.443,24.772 C19.0764281,24.7722992 18.7494731,24.5415074 18.627,24.196 Z M17.248,20.776 L16.742,22.201 C16.7201953,22.2623269 16.7295971,22.3304283 16.7672024,22.3835533 C16.8048078,22.4366783 16.8659124,22.4681812 16.931,22.468 L17.742,22.468 C17.8070145,22.4683917 17.8681622,22.4371567 17.9059518,22.3842513 C17.9437413,22.3313459 17.9534563,22.2633731 17.932,22.202 L17.437,20.777 C17.4230596,20.7367223 17.3851219,20.709707 17.3425,20.709707 C17.2998781,20.709707 17.2619404,20.7367223 17.248,20.777 L17.248,20.776 Z M21.975,21.644 L22.511,21.644 C22.991,21.644 23.319,21.364 23.319,20.924 C23.319,20.468 22.991,20.196 22.511,20.196 L21.975,20.196 C21.8645431,20.196 21.775,20.2855431 21.775,20.396 L21.775,21.444 C21.775,21.554 21.865,21.644 21.975,21.644 Z M22.639,22.732 L21.767,22.732 L21.767,24.14 C21.767,24.489044 21.484044,24.772 21.135,24.772 C20.785956,24.772 20.503,24.489044 20.503,24.14 L20.503,20.1 C20.503,19.5477153 20.9507153,19.1 21.503,19.1 L22.639,19.1 C23.791,19.1 24.583,19.86 24.583,20.916 C24.583,21.988 23.791,22.732 22.639,22.732 Z M25.835,24.772 C25.4815378,24.772 25.195,24.4854622 25.195,24.132 L25.195,19.74 C25.195,19.3865378 25.4815378,19.1 25.835,19.1 C26.1884622,19.1 26.475,19.3865378 26.475,19.74 L26.475,24.132 C26.475,24.4854622 26.1884622,24.772 25.835,24.772 Z" id="Shape" fill="#2E72FE"></path>
                                </g>
                            </g>
                        </g>
                    </g>
                </g>
            </g>
        </g>
    </g>
</svg>