<?xml version="1.0" encoding="UTF-8"?>
<svg width="96px" height="96px" viewBox="0 0 96 96" version="1.1" xmlns="http://www.w3.org/2000/svg" xmlns:xlink="http://www.w3.org/1999/xlink">
    <!-- Generator: Sketch 51.3 (57544) - http://www.bohemiancoding.com/sketch -->
    <title>Group 65</title>
    <desc>Created with Sketch.</desc>
    <defs></defs>
    <g id="Page-1" stroke="none" stroke-width="1" fill="none" fill-rule="evenodd">
        <g id="fluence_desktop" transform="translate(-165.000000, -2098.000000)">
            <g id="Group-52" transform="translate(165.000000, 1758.000000)">
                <g id="Group-43" transform="translate(0.000000, 340.000000)">
                    <g id="Group-38">
                        <g id="Group-24">
                            <g id="Group-65">
                                <rect id="Rectangle-6" stroke="#FFFFFF" x="0.5" y="0.5" width="95" height="95"></rect>
                                <g id="Group-63" transform="translate(23.000000, 27.000000)">
                                    <rect id="Rectangle" stroke="#2E72FE" fill="#D8D8D8" x="4.5" y="0.5" width="1" height="41" rx="0.5"></rect>
                                    <rect id="Rectangle-Copy-6" stroke="#2E72FE" fill="#D8D8D8" x="0.5" y="36.5" width="49" height="1" rx="0.5"></rect>
                                    <polygon id="Path-5-Copy-2" points="6 22 9 22 9 24 13 24 13 26 15 26 15 27 17 27 17 31 22 31 22 33 23 33 24.9999998 33 25 35 25 36 6 36"></polygon>
                                    <polygon id="Path-5-Copy-3" transform="translate(38.500000, 29.500000) scale(-1, 1) translate(-38.500000, -29.500000) " points="27 22 31 22 31 24 36 24 36 26 40 26 40 28 42 28 42 30 45 30 45 33 48 33 48 35 50 35 50 37 27 37"></polygon>
                                    <polyline id="Path-5" stroke="#2E72FE" stroke-width="2" stroke-linecap="round" points="6 22 9 22 9 24 13 24 13 26 15 26 15 27 17 27 17 31 22 31 22 33 23 33 24.9999998 33 25 35 25 36"></polyline>
                                    <polyline id="Path-5-Copy" stroke="#2E72FE" stroke-width="2" stroke-linecap="round" transform="translate(38.000000, 29.000000) scale(-1, 1) translate(-38.000000, -29.000000) " points="27 22 30 22 30 24 35 24 35 26 39 26 39 28 41 28 41 30 44 30 44 33 47 33 47 35 49 35 49 36"></polyline>
                                </g>
                            </g>
                        </g>
                    </g>
                </g>
            </g>
        </g>
    </g>
</svg>