<svg xmlns="http://www.w3.org/2000/svg" width="32" height="32" viewBox="0 0 32 32">
    <path fill="#FFF" fill-opacity=".5" fill-rule="evenodd" d="M4 0h24a4 4 0 0 1 4 4v24a4 4 0 0 1-4 4H4a4 4 0 0 1-4-4V4a4 4 0 0 1 4-4zm8.661 23c6.792 0 10.508-5.387 10.508-10.058 0-.153 0-.306-.011-.457A7.332 7.332 0 0 0 25 10.655a7.614 7.614 0 0 1-2.12.557 3.583 3.583 0 0 0 1.623-1.956 7.606 7.606 0 0 1-2.345.858c-1.399-1.423-3.738-1.492-5.226-.153-.958.863-1.366 2.15-1.068 3.378-2.969-.143-5.736-1.486-7.611-3.694-.98 1.616-.479 3.681 1.144 4.719a3.791 3.791 0 0 1-1.677-.442v.045c0 1.682 1.24 3.131 2.963 3.464a3.833 3.833 0 0 1-1.667.06c.483 1.441 1.87 2.428 3.45 2.456a7.623 7.623 0 0 1-4.587 1.516c-.293 0-.586-.017-.879-.05a10.802 10.802 0 0 0 5.661 1.584V23z"/>
</svg>
