<svg xmlns="http://www.w3.org/2000/svg" width="32" height="32" viewBox="0 0 32 32">
    <path fill="#FFF" fill-opacity=".5" fill-rule="evenodd" d="M4 0h24a4 4 0 0 1 4 4v24a4 4 0 0 1-4 4H4a4 4 0 0 1-4-4V4a4 4 0 0 1 4-4zm21.582 11.186a2.505 2.505 0 0 0-1.768-1.768C22.254 9 16 9 16 9s-6.254 0-7.814.418c-.86.23-1.538.908-1.768 1.768C6 12.746 6 16 6 16s0 3.254.418 4.814c.23.86.908 1.538 1.768 1.768C9.746 23 16 23 16 23s6.254 0 7.814-.418a2.505 2.505 0 0 0 1.768-1.768C26 19.254 26 16 26 16s0-3.254-.418-4.814zM14 19v-6l5 3-5 3z"/>
</svg>
